<svg width="420" height="120" viewBox="0 0 420 120" fill="none" xmlns="http://www.w3.org/2000/svg">
  <g fill="#0A5ACB">
    <path d="M49.8 94.2c8.6-16.6 16.2-34.3 21.5-53.1 1.4-5.1 5.7-8.8 11-9.8 17.9-3.5 35.6-8.8 53-16.2-9.4 10.8-19.8 20.7-31.4 29.3-3.4 2.5-7.5 3.8-11.7 3.8h-2.5c-7.2 17.8-17.7 34.6-31.5 50.2l-8.4-4.2z"/>
    <path d="M57.7 102c-4.2 0-7.8-3.3-8.1-7.6-.1-1.7.3-3.4 1.3-4.8 17-25.1 26.8-53.3 29.4-84.4.3-4.5 4.3-7.8 8.8-7.4 4.5.4 7.8 4.3 7.4 8.8-2.9 34-13.7 64.8-32.6 92.3-1.5 2.1-3.9 3.2-6.2 3.2z"/>
    <path d="M115 83.6c0-20.4 14.5-35 34.5-35 10.9 0 20.1 4.5 26.3 12.3l-11.3 10.5c-3.8-4.5-8.6-7-14.2-7-10.4 0-17.9 7.5-17.9 19.2 0 11.7 7.5 19.2 17.9 19.2 5.6 0 10.4-2.5 14.2-7l11.3 10.5c-6.2 7.8-15.4 12.3-26.3 12.3-20 0-34.5-14.6-34.5-35z"/>
    <path d="M183.8 50h16.8v23.4h9.6L226.4 50h18.6l-20.6 28.9 21.2 37.9h-18.9l-14.5-25.9h-11.6v25.9h-16.8V50z"/>
    <path d="M251.8 50h16.8v66.8h-16.8V50z"/>
    <path d="M280.6 50h30.4c16.9 0 27.5 8.8 27.5 23 0 14.1-10.6 23-27.5 23h-13.6v20.8h-16.8V50zm29.4 32.3c7.4 0 11.6-3.4 11.6-9.3 0-6-4.2-9.3-11.6-9.3h-12.6v18.6h12.6z"/>
    <path d="M347 50h16.8v66.8H347V50z"/>
    <path d="M391.4 63.7H371V50h57.6v13.7h-20.4v53.1h-16.8V63.7z"/>
    <circle cx="259.8" cy="35" r="7"/>
  </g>
</svg>
