<svg xmlns="http://www.w3.org/2000/svg" viewBox="0 0 16 16" role="img" aria-label="LinkedIn">
  <path fill="#0A66C2" d="M0 1.146C0 .513.526 0 1.175 0h13.65C15.474 0 16 .513 16 1.146v13.708c0 .633-.526 1.146-1.175 1.146H1.175C.526 16 0 15.487 0 14.854zM4.943 13.5V6.169H2.542V13.5zM3.743 5.169c.837 0 1.358-.554 1.358-1.248-.015-.709-.52-1.248-1.342-1.248S2.4 3.212 2.4 3.92c0 .694.521 1.248 1.327 1.248h.016zm4.908 8.331V9.359c0-.222.016-.444.082-.603.18-.444.59-.904 1.278-.904.901 0 1.261.683 1.261 1.683V13.5h2.401V9.258c0-2.271-1.21-3.328-2.824-3.328-1.304 0-1.872.718-2.195 1.224h.03V6.169h-2.4c.03.65 0 7.331 0 7.331z"/>
</svg>